<svg width="147" height="32" viewBox="0 0 147 32" fill="none" xmlns="http://www.w3.org/2000/svg">
<path d="M41.2642 23V8.45455H51.0653V10.9901H44.3395V14.456H50.5611V16.9915H44.3395V20.4645H51.0938V23H41.2642ZM56.5643 23.206C55.8683 23.206 55.248 23.0852 54.7035 22.8438C54.159 22.5975 53.7281 22.2353 53.4109 21.7571C53.0984 21.2741 52.9421 20.6728 52.9421 19.9531C52.9421 19.3471 53.0534 18.8381 53.2759 18.4261C53.4985 18.0142 53.8015 17.6828 54.185 17.4318C54.5685 17.1809 55.0041 16.9915 55.4918 16.8636C55.9843 16.7358 56.5004 16.6458 57.0401 16.5938C57.6746 16.5275 58.186 16.4659 58.5742 16.4091C58.9625 16.3475 59.2442 16.2576 59.4194 16.1392C59.5946 16.0208 59.6822 15.8456 59.6822 15.6136V15.571C59.6822 15.1212 59.5401 14.7732 59.256 14.527C58.9767 14.2808 58.579 14.1577 58.0629 14.1577C57.5183 14.1577 57.0851 14.2784 56.7631 14.5199C56.4412 14.7566 56.2281 15.0549 56.1239 15.4148L53.3256 15.1875C53.4677 14.5246 53.747 13.9517 54.1637 13.4688C54.5804 12.9811 55.1178 12.607 55.7759 12.3466C56.4388 12.0814 57.2058 11.9489 58.0771 11.9489C58.6831 11.9489 59.2631 12.0199 59.8171 12.1619C60.3758 12.304 60.8706 12.5241 61.3015 12.8224C61.7371 13.1207 62.0804 13.5043 62.3313 13.973C62.5823 14.437 62.7077 14.9934 62.7077 15.642V23H59.8384V21.4872H59.7532C59.578 21.8281 59.3436 22.1288 59.0501 22.3892C58.7565 22.6449 58.4038 22.8461 57.9918 22.9929C57.5799 23.1349 57.104 23.206 56.5643 23.206ZM57.4308 21.1179C57.8758 21.1179 58.2688 21.0303 58.6097 20.8551C58.9506 20.6752 59.2182 20.4337 59.4123 20.1307C59.6064 19.8277 59.7035 19.4844 59.7035 19.1009V17.9432C59.6088 18.0047 59.4786 18.0616 59.3129 18.1136C59.1519 18.161 58.9696 18.206 58.766 18.2486C58.5624 18.2865 58.3588 18.322 58.1552 18.3551C57.9516 18.3835 57.7669 18.4096 57.6012 18.4332C57.2461 18.4853 56.936 18.5682 56.6708 18.6818C56.4057 18.7955 56.1997 18.9493 56.0529 19.1435C55.9061 19.3329 55.8327 19.5696 55.8327 19.8537C55.8327 20.2656 55.9819 20.5805 56.2802 20.7983C56.5832 21.0114 56.9667 21.1179 57.4308 21.1179ZM74.1317 15.2017L71.3619 15.3722C71.3145 15.1354 71.2127 14.9223 71.0565 14.733C70.9002 14.5388 70.6942 14.3849 70.4386 14.2713C70.1876 14.1529 69.887 14.0938 69.5366 14.0938C69.0678 14.0938 68.6725 14.1932 68.3505 14.392C68.0285 14.5862 67.8675 14.8466 67.8675 15.1733C67.8675 15.4337 67.9717 15.6539 68.18 15.8338C68.3884 16.0137 68.7459 16.1581 69.2525 16.267L71.2269 16.6648C72.2875 16.8826 73.0782 17.233 73.5991 17.7159C74.1199 18.1989 74.3803 18.8333 74.3803 19.6193C74.3803 20.3343 74.1696 20.9616 73.7482 21.5014C73.3316 22.0412 72.7586 22.4626 72.0295 22.7656C71.305 23.0639 70.4693 23.2131 69.5224 23.2131C68.0782 23.2131 66.9277 22.9124 66.0707 22.3111C65.2184 21.705 64.7189 20.8812 64.5721 19.8395L67.5479 19.6832C67.6379 20.1236 67.8557 20.4598 68.2013 20.6918C68.547 20.919 68.9897 21.0327 69.5295 21.0327C70.0598 21.0327 70.4859 20.9309 70.8079 20.7273C71.1346 20.5189 71.3003 20.2514 71.305 19.9247C71.3003 19.6501 71.1843 19.4252 70.957 19.25C70.7298 19.0701 70.3794 18.9328 69.9059 18.8381L68.0167 18.4616C66.9513 18.2486 66.1583 17.8793 65.6374 17.3537C65.1213 16.8281 64.8633 16.1581 64.8633 15.3438C64.8633 14.643 65.0527 14.0393 65.4315 13.5327C65.815 13.026 66.3524 12.6354 67.0437 12.3608C67.7397 12.0862 68.5541 11.9489 69.4869 11.9489C70.8647 11.9489 71.949 12.2401 72.7397 12.8224C73.5352 13.4048 73.9992 14.1979 74.1317 15.2017ZM78.1534 27.0909C77.7699 27.0909 77.41 27.0601 77.0739 26.9986C76.7424 26.9418 76.4678 26.8684 76.25 26.7784L76.9318 24.5199C77.2869 24.6288 77.6065 24.688 77.8906 24.6974C78.1795 24.7069 78.428 24.6406 78.6364 24.4986C78.8494 24.3565 79.0223 24.1151 79.1548 23.7741L79.3324 23.3125L75.419 12.0909H78.6009L80.8594 20.1023H80.973L83.2528 12.0909H86.456L82.2159 24.179C82.0123 24.7661 81.7353 25.2775 81.3849 25.7131C81.0393 26.1534 80.6013 26.492 80.071 26.7287C79.5407 26.9702 78.9015 27.0909 78.1534 27.0909ZM86.8235 10.9901V8.45455H98.7695V10.9901H94.3164V23H91.2766V10.9901H86.8235ZM99.5472 23V12.0909H102.48V13.9943H102.594C102.793 13.3172 103.127 12.8059 103.596 12.4602C104.064 12.1098 104.604 11.9347 105.215 11.9347C105.366 11.9347 105.53 11.9441 105.705 11.9631C105.88 11.982 106.034 12.008 106.167 12.0412V14.7259C106.025 14.6832 105.828 14.6454 105.577 14.6122C105.326 14.5791 105.096 14.5625 104.888 14.5625C104.443 14.5625 104.045 14.6596 103.695 14.8537C103.349 15.0431 103.075 15.3082 102.871 15.6491C102.672 15.9901 102.573 16.383 102.573 16.8281V23H99.5472ZM110.529 23.206C109.833 23.206 109.213 23.0852 108.668 22.8438C108.124 22.5975 107.693 22.2353 107.376 21.7571C107.063 21.2741 106.907 20.6728 106.907 19.9531C106.907 19.3471 107.018 18.8381 107.241 18.4261C107.463 18.0142 107.766 17.6828 108.15 17.4318C108.533 17.1809 108.969 16.9915 109.457 16.8636C109.949 16.7358 110.465 16.6458 111.005 16.5938C111.639 16.5275 112.151 16.4659 112.539 16.4091C112.927 16.3475 113.209 16.2576 113.384 16.1392C113.559 16.0208 113.647 15.8456 113.647 15.6136V15.571C113.647 15.1212 113.505 14.7732 113.221 14.527C112.942 14.2808 112.544 14.1577 112.028 14.1577C111.483 14.1577 111.05 14.2784 110.728 14.5199C110.406 14.7566 110.193 15.0549 110.089 15.4148L107.29 15.1875C107.433 14.5246 107.712 13.9517 108.129 13.4688C108.545 12.9811 109.083 12.607 109.741 12.3466C110.404 12.0814 111.171 11.9489 112.042 11.9489C112.648 11.9489 113.228 12.0199 113.782 12.1619C114.341 12.304 114.835 12.5241 115.266 12.8224C115.702 13.1207 116.045 13.5043 116.296 13.973C116.547 14.437 116.673 14.9934 116.673 15.642V23H113.803V21.4872H113.718C113.543 21.8281 113.308 22.1288 113.015 22.3892C112.721 22.6449 112.369 22.8461 111.957 22.9929C111.545 23.1349 111.069 23.206 110.529 23.206ZM111.396 21.1179C111.841 21.1179 112.234 21.0303 112.575 20.8551C112.915 20.6752 113.183 20.4337 113.377 20.1307C113.571 19.8277 113.668 19.4844 113.668 19.1009V17.9432C113.574 18.0047 113.443 18.0616 113.278 18.1136C113.117 18.161 112.934 18.206 112.731 18.2486C112.527 18.2865 112.324 18.322 112.12 18.3551C111.916 18.3835 111.732 18.4096 111.566 18.4332C111.211 18.4853 110.901 18.5682 110.636 18.6818C110.371 18.7955 110.165 18.9493 110.018 19.1435C109.871 19.3329 109.798 19.5696 109.798 19.8537C109.798 20.2656 109.947 20.5805 110.245 20.7983C110.548 21.0114 110.932 21.1179 111.396 21.1179ZM128.8 12.0909L124.986 23H121.577L117.763 12.0909H120.959L123.224 19.8963H123.338L125.597 12.0909H128.8ZM134.968 23.2131C133.846 23.2131 132.88 22.9858 132.07 22.5312C131.265 22.072 130.645 21.4233 130.21 20.5852C129.774 19.7424 129.556 18.7457 129.556 17.5952C129.556 16.473 129.774 15.4882 130.21 14.6406C130.645 13.7931 131.258 13.1326 132.049 12.6591C132.844 12.1856 133.777 11.9489 134.847 11.9489C135.567 11.9489 136.237 12.0649 136.857 12.2969C137.482 12.5241 138.027 12.8674 138.491 13.3267C138.96 13.786 139.324 14.3636 139.585 15.0597C139.845 15.7509 139.975 16.5606 139.975 17.4886V18.3196H130.763V16.4446H137.127C137.127 16.009 137.032 15.6231 136.843 15.2869C136.654 14.9508 136.391 14.688 136.055 14.4986C135.723 14.3045 135.337 14.2074 134.897 14.2074C134.438 14.2074 134.031 14.3139 133.675 14.527C133.325 14.7353 133.05 15.017 132.852 15.3722C132.653 15.7225 132.551 16.1132 132.546 16.544V18.3267C132.546 18.8665 132.646 19.3329 132.844 19.7259C133.048 20.1188 133.335 20.4219 133.704 20.6349C134.073 20.848 134.511 20.9545 135.018 20.9545C135.354 20.9545 135.662 20.9072 135.941 20.8125C136.22 20.7178 136.46 20.5758 136.658 20.3864C136.857 20.197 137.009 19.965 137.113 19.6903L139.911 19.875C139.769 20.5473 139.478 21.1345 139.038 21.6364C138.602 22.1335 138.039 22.5218 137.347 22.8011C136.661 23.0758 135.868 23.2131 134.968 23.2131ZM144.975 8.45455V23H141.95V8.45455H144.975Z" fill="#005BFF"/>
<path fill-rule="evenodd" clip-rule="evenodd" d="M25.7987 10.8993C25.7987 17.7698 18.7719 21.8978 16.7632 22.9375C16.4259 23.1121 16.0395 23.1121 15.7022 22.9375C13.6935 21.8978 6.66668 17.7698 6.66668 10.8993C6.66668 5.6161 10.9495 1.33325 16.2327 1.33325C21.5159 1.33325 25.7987 5.6161 25.7987 10.8993ZM20.3323 10.8991C20.3323 13.1633 18.4968 14.9988 16.2325 14.9988C13.9683 14.9988 12.1328 13.1633 12.1328 10.8991C12.1328 8.63491 13.9683 6.7994 16.2325 6.7994C18.4968 6.7994 20.3323 8.63491 20.3323 10.8991ZM25.9746 18.9713C25.2551 18.3952 24.2996 18.66 23.8404 19.5629C23.3813 20.4658 23.5924 21.6649 24.3119 22.241C24.6309 22.4965 24.796 22.7085 24.8712 22.8382C24.8777 22.8495 24.8833 22.8596 24.8881 22.8687C24.8833 22.8779 24.8777 22.888 24.8712 22.8993C24.796 23.029 24.6309 23.241 24.3119 23.4965C23.6658 24.0138 22.6265 24.5204 21.2391 24.8907C19.8694 25.2563 18.2904 25.4546 16.6667 25.4546C15.043 25.4546 13.464 25.2563 12.0943 24.8907C10.7069 24.5204 9.66755 24.0138 9.02147 23.4965C8.70241 23.241 8.53736 23.029 8.46217 22.8993C8.45567 22.888 8.45007 22.8779 8.44526 22.8688C8.45007 22.8596 8.45567 22.8495 8.46217 22.8382C8.53736 22.7085 8.70241 22.4965 9.02147 22.241C9.74099 21.6649 9.95207 20.4658 9.49293 19.5629C9.03378 18.66 8.07829 18.3952 7.35878 18.9713C6.33584 19.7905 5.33334 21.0812 5.33334 22.8688C5.33334 24.6563 6.33584 25.947 7.35878 26.7662C8.43083 27.6246 9.86272 28.2606 11.4512 28.6846C13.0574 29.1133 14.8541 29.3333 16.6667 29.3333C18.4792 29.3333 20.2759 29.1133 21.8822 28.6846C23.4706 28.2606 24.9025 27.6246 25.9746 26.7662C26.9975 25.947 28 24.6563 28 22.8687C28 21.0812 26.9975 19.7905 25.9746 18.9713ZM24.9153 22.9306C24.9155 22.931 24.9156 22.9312 24.9156 22.9312C24.9156 22.9312 24.9154 22.93 24.9145 22.9275C24.9149 22.9289 24.9152 22.93 24.9153 22.9306ZM24.9145 22.81C24.9151 22.8076 24.9155 22.8063 24.9156 22.8063C24.9156 22.8063 24.9153 22.8075 24.9145 22.81ZM8.41777 22.8063C8.41783 22.8063 8.41824 22.8076 8.41883 22.8101C8.418 22.8075 8.41771 22.8063 8.41777 22.8063ZM8.41777 22.9312C8.41783 22.9312 8.41824 22.9299 8.41883 22.9274C8.41827 22.9291 8.41795 22.9303 8.41783 22.9308C8.41777 22.9311 8.41775 22.9312 8.41777 22.9312Z" fill="#005BFF"/>
</svg>
